<?xml version="1.0" encoding="UTF-8"?>
<svg version="1.1" xmlns="http://www.w3.org/2000/svg" width="686" height="592">
<path d="M0 0 C0.75749542 -0.00067474 1.51499084 -0.00134949 2.29544067 -0.00204468 C25.32887878 0.0304837 46.59100736 4.02844142 68.25 11.875 C69.04937988 12.16407227 69.84875977 12.45314453 70.67236328 12.75097656 C78.5953169 15.73128 78.5953169 15.73128 80.8125 18.25 C81.47265625 20.97265625 81.47265625 20.97265625 80.8125 24.25 C78.9318936 27.05390935 76.65799753 29.33317617 74.25 31.6875 C73.64091797 32.33654297 73.03183594 32.98558594 72.40429688 33.65429688 C67.82404587 38.22485423 67.82404587 38.22485423 63.35546875 38.3359375 C59.42311265 37.13065085 55.55069643 35.84675175 51.6875 34.4375 C44.81240565 32.03771654 37.96921306 30.27850273 30.8125 28.9375 C29.9654248 28.77854248 29.11834961 28.61958496 28.24560547 28.45581055 C-0.24145901 23.38655108 -32.41155855 24.86640734 -57.1875 41.25 C-72.51021572 52.90304809 -81.44675158 68.19125712 -84.1875 87.25 C-85.86679513 104.12486812 -80.31298669 120.64111359 -70 133.9375 C-57.05689753 148.89826687 -40.09337811 157.40129419 -21.1875 162.25 C-20.259375 162.49492187 -19.33125 162.73984375 -18.375 162.9921875 C-3.91270475 166.21093004 13.29071214 165.69385178 26.375 158.4375 C30.23924894 155.88231259 32.94549988 153.60633361 34.8125 149.25 C34.88811582 144.93989822 34.30032604 142.91521733 31.75 139.4375 C25.8787887 135.06532137 19.08795948 134.96735731 12.02734375 134.9765625 C10.34439461 134.9562552 8.66145196 134.9354041 6.97851562 134.9140625 C4.3746998 134.89163892 1.77114376 134.87504797 -0.83276367 134.86914062 C-17.72308428 134.80480267 -33.20865705 133.30538887 -46.27734375 121.3359375 C-54.75530049 112.3381906 -56.68369949 102.33520744 -56.46484375 90.37109375 C-56.00329114 80.35700961 -51.37145629 72.18661047 -44.22265625 65.37890625 C-26.99385974 50.89176271 -3.47780952 51.1030361 17.8125 52.25 C45.50294077 54.65045767 70.87742437 67.23554954 90.8125 86.25 C91.73095703 87.05630859 91.73095703 87.05630859 92.66796875 87.87890625 C106.42809163 100.4424967 114.75425708 120.89609936 115.8125 139.25 C116.93800281 165.24208055 108.91371728 188.66344015 91.8125 208.25 C69.78596241 231.50828475 36.15157574 241.49154786 4.96484375 242.53125 C-19.81791719 243.01721958 -57.84076709 240.84789166 -77.88378906 223.80786133 C-79.1875 222.25 -79.1875 222.25 -79.7578125 219.4921875 C-78.93107117 214.79221969 -76.42466839 212.60560528 -73.0625 209.375 C-72.49273437 208.78203125 -71.92296875 208.1890625 -71.3359375 207.578125 C-68.67690047 204.95534757 -66.99060458 203.41169891 -63.27734375 202.6640625 C-59.21280796 203.43483414 -55.66639443 204.8760571 -51.875 206.5 C-19.76482739 219.55513417 16.02050769 219.33826744 48.1875 206.5 C65.4805852 198.62114109 78.09868633 186.55923365 85.16796875 168.85546875 C90.76158917 152.478479 90.60617114 136.26374764 83.52734375 120.36328125 C74.50269114 102.33911434 56.38631196 90.20487047 37.6796875 83.78125 C19.43739026 77.90643561 -3.99031143 74.10991053 -21.9375 82.625 C-25.23709111 84.36458034 -27.19297157 86.08293062 -29.1875 89.25 C-30.21594149 93.21684575 -30.42687453 95.53187642 -29.125 99.4375 C-25.34499475 104.9246044 -20.8610506 106.53863572 -14.6270752 107.84844971 C-10.82112178 108.47490374 -7.08410709 108.52844925 -3.234375 108.5234375 C-1.54556637 108.543733 0.14323566 108.5645839 1.83203125 108.5859375 C4.44260283 108.60842136 7.05291055 108.6249784 9.66357422 108.63085938 C24.88474117 108.6884172 40.41235582 109.83177862 51.84375 121.28515625 C58.91034148 129.77404898 62.56278675 139.67529424 61.59375 150.75 C59.51862275 163.52001382 52.58774498 172.23767012 42.50390625 180.03515625 C23.82961877 192.34821933 -2.86200595 193.01186099 -24.27001953 189.12280273 C-53.7300318 182.72568186 -81.14363543 166.58662261 -97.80566406 141.03076172 C-110.3293743 120.81714409 -114.02679949 95.35801653 -108.625 72.1875 C-105.24142618 59.27137261 -99.7416398 47.54369434 -91.1875 37.25 C-90.4759375 36.38761719 -89.764375 35.52523437 -89.03125 34.63671875 C-66.56540761 8.57159527 -33.2515694 0.02657135 0 0 Z " fill="#164EA1" transform="translate(340.1875,111.75)"/>
<path d="M0 0 C24.44070487 9.90839387 43.69599916 41.89559514 53.73608398 65.04223633 C64.21058288 90.36750344 66.3923785 118.60810698 60.1796875 145.2890625 C60.0240332 145.97452148 59.86837891 146.65998047 59.70800781 147.36621094 C54.45952625 169.5858305 42.96312725 189.11563332 28.1796875 206.2890625 C27.385625 207.21847656 26.5915625 208.14789063 25.7734375 209.10546875 C20.08151459 215.58093168 14.00381404 221.03683821 7.1796875 226.2890625 C5.79330078 227.39894531 5.79330078 227.39894531 4.37890625 228.53125 C-3.54179772 234.72633375 -11.9251689 239.65725893 -20.8203125 244.2890625 C-21.43777344 244.61148926 -22.05523437 244.93391602 -22.69140625 245.26611328 C-37.52001956 252.88371544 -53.40757328 257.56714783 -69.8203125 260.2890625 C-70.573125 260.42054688 -71.3259375 260.55203125 -72.1015625 260.6875 C-77.8779603 261.56342917 -84.00002534 261.81736549 -89.8203125 261.2890625 C-92.31088501 258.79848999 -92.0768938 258.00433591 -92.0859375 254.5703125 C-92.08851563 253.63832031 -92.09109375 252.70632813 -92.09375 251.74609375 C-92.08601563 250.77027344 -92.07828125 249.79445313 -92.0703125 248.7890625 C-92.07804687 247.81324219 -92.08578125 246.83742188 -92.09375 245.83203125 C-92.09117187 244.90003906 -92.08859375 243.96804688 -92.0859375 243.0078125 C-92.08368164 242.15123047 -92.08142578 241.29464844 -92.07910156 240.41210938 C-91.8203125 238.2890625 -91.8203125 238.2890625 -89.8203125 236.2890625 C-87.56811523 235.77416992 -87.56811523 235.77416992 -84.75390625 235.39453125 C-83.71935303 235.24653076 -82.6847998 235.09853027 -81.61889648 234.94604492 C-80.50973877 234.79111572 -79.40058105 234.63618652 -78.2578125 234.4765625 C-41.63104347 228.94725647 -8.24193972 211.39974455 14.4921875 181.52124023 C31.94662678 157.71065953 40.26645947 128.80273886 35.8984375 99.41015625 C30.90808153 69.46101152 13.40375935 41.33206437 -11.3203125 23.484375 C-12.6592578 22.56145913 -14.01438819 21.6608704 -15.39453125 20.80078125 C-16.8203125 19.2890625 -16.8203125 19.2890625 -17.921875 16.546875 C-17.78909625 12.28774113 -16.35591685 11.06827113 -13.38476562 8.18945312 C-12.76537109 7.62419922 -12.14597656 7.05894531 -11.5078125 6.4765625 C-10.90001953 5.89197266 -10.29222656 5.30738281 -9.66601562 4.70507812 C-3.73226221 -0.94081956 -3.73226221 -0.94081956 0 0 Z " fill="#164EA1" transform="translate(447.8203125,145.7109375)"/>
<path d="M0 0 C1.38832031 -0.02126953 1.38832031 -0.02126953 2.8046875 -0.04296875 C5.125 0.1875 5.125 0.1875 7.125 2.1875 C7.38378906 4.31054687 7.38378906 4.31054687 7.390625 6.90625 C7.39320313 7.83824219 7.39578125 8.77023438 7.3984375 9.73046875 C7.39070312 10.70628906 7.38296875 11.68210937 7.375 12.6875 C7.38273438 13.66332031 7.39046875 14.63914062 7.3984375 15.64453125 C7.39585937 16.57652344 7.39328125 17.50851563 7.390625 18.46875 C7.38836914 19.32533203 7.38611328 20.18191406 7.38378906 21.06445312 C7.125 23.1875 7.125 23.1875 5.125 25.1875 C2.4296875 25.79418945 2.4296875 25.79418945 -1 26.30078125 C-2.25506348 26.49381836 -3.51012695 26.68685547 -4.80322266 26.88574219 C-5.46799622 26.98544312 -6.13276978 27.08514404 -6.81768799 27.18786621 C-42.15631929 32.54941605 -76.59398359 45.29125267 -99.03295898 74.70092773 C-112.4015656 93.0096192 -120.61981637 114.43729678 -121.875 137.1875 C-121.91625 137.85265625 -121.9575 138.5178125 -122 139.203125 C-122.91269836 169.09399616 -110.39435763 198.47004182 -90.10888672 220.06787109 C-82.99812557 227.62766019 -82.99812557 227.62766019 -75.0234375 234.2109375 C-72.875 236.1875 -72.875 236.1875 -71.6796875 239.01171875 C-71.97540193 243.82003533 -74.59338951 245.8217049 -78 249 C-78.87398437 249.87688477 -78.87398437 249.87688477 -79.765625 250.77148438 C-82.23487995 253.16046086 -84.31070287 254.94384547 -87.48046875 256.3125 C-95.81891494 255.87721406 -105.49569148 243.08979685 -110.875 237.1875 C-137.7521157 206.17919972 -149.68176083 170.12131794 -147.875 129.1875 C-146.41499302 111.54656558 -140.8695812 94.87261793 -132.875 79.1875 C-132.39160156 78.21167969 -131.90820312 77.23585938 -131.41015625 76.23046875 C-125.59335692 64.96746948 -117.52889746 55.37346349 -108.875 46.1875 C-108.27558594 45.52363281 -107.67617187 44.85976562 -107.05859375 44.17578125 C-81.40133003 16.85605983 -37.02786906 0.26223703 0 0 Z " fill="#164EA1" transform="translate(324.875,61.8125)"/>
<path d="M0 0 C2.904534 0.9009777 5.68902179 2.03107319 8.5 3.1875 C23.68249231 9.08856761 39.86612586 13.06390633 56.109375 14.48046875 C59.64267457 15.11550773 61.41239929 15.44551301 64 18 C64.68089928 21.53221443 64.5592511 24.97919814 64.4375 28.5625 C64.42879883 30.01946289 64.42879883 30.01946289 64.41992188 31.50585938 C64.29484729 38.70515271 64.29484729 38.70515271 62 41 C55.03912693 41.40987177 48.4751771 40.49392825 41.625 39.3125 C40.57280273 39.13243408 39.52060547 38.95236816 38.43652344 38.7668457 C-6.71537924 30.76649722 -6.71537924 30.76649722 -22 19 C-22.98828125 16.5625 -22.98828125 16.5625 -23 14 C-21.16540314 10.92222237 -18.49557566 8.55820594 -16 6 C-15.43539062 5.30519531 -14.87078125 4.61039062 -14.2890625 3.89453125 C-13.46535156 2.92580078 -13.46535156 2.92580078 -12.625 1.9375 C-12.14289063 1.34839844 -11.66078125 0.75929688 -11.1640625 0.15234375 C-7.49879114 -1.79938017 -3.94354277 -0.85891404 0 0 Z " fill="#164EA1" transform="translate(268,366)"/>
<path d="M0 0 C41.6234932 8.65895207 41.6234932 8.65895207 47.015625 16.30078125 C47.60546875 18.52734375 47.60546875 18.52734375 47.015625 21.30078125 C45.14622027 24.04257486 42.91369107 26.3282133 40.578125 28.67578125 C39.98580078 29.32933594 39.39347656 29.98289063 38.78320312 30.65625 C34.4109168 35.09867996 34.4109168 35.09867996 30.91040039 35.60571289 C24.876749 35.1014017 19.04329843 32.8795557 13.328125 30.98828125 C-0.16585218 26.69684054 -13.94391182 23.7529053 -28.07861328 22.65771484 C-29.984375 22.30078125 -29.984375 22.30078125 -32.984375 20.30078125 C-33.37255859 18.0859375 -33.37255859 18.0859375 -33.3828125 15.36328125 C-33.38667969 14.38617188 -33.39054687 13.4090625 -33.39453125 12.40234375 C-33.38292969 11.37882812 -33.37132812 10.3553125 -33.359375 9.30078125 C-33.37097656 8.27726562 -33.38257813 7.25375 -33.39453125 6.19921875 C-33.39066406 5.22210938 -33.38679688 4.245 -33.3828125 3.23828125 C-33.37942871 2.33980469 -33.37604492 1.44132812 -33.37255859 0.515625 C-33.24445801 -0.21527344 -33.11635742 -0.94617188 -32.984375 -1.69921875 C-25.08604214 -6.96477399 -8.9625632 -1.75066706 0 0 Z " fill="#164EA1" transform="translate(388.984375,65.69921875)"/>
<path d="M0 0 C3.96 0 7.92 0 12 0 C17.62280282 11.04372309 22.9115308 22.20101257 28 33.5 C31.465 41.1725 31.465 41.1725 35 49 C35.33 32.83 35.66 16.66 36 0 C38.64 0 41.28 0 44 0 C44 20.46 44 40.92 44 62 C39.71 62 35.42 62 31 62 C30.5467334 60.97753174 30.0934668 59.95506348 29.62646484 58.90161133 C27.91651423 55.0450533 26.2052628 51.18907357 24.49365234 47.33325195 C23.75828092 45.67617862 23.02324493 44.01895638 22.28857422 42.36157227 C21.22194948 39.95548222 20.15404884 37.54996167 19.0859375 35.14453125 C18.76692474 34.42417191 18.44791199 33.70381256 18.11923218 32.96162415 C15.14718081 26.27415767 12.06790564 19.64712888 9 13 C8.67 29.17 8.34 45.34 8 62 C5.36 62 2.72 62 0 62 C0 41.54 0 21.08 0 0 Z " fill="#174EA1" transform="translate(272,468)"/>
<path d="M0 0 C3.71385405 2.2848276 6.37670604 5.05099792 8.0625 9.125 C8.45154971 12.52918492 8.36958684 15.88728946 8.3125 19.3125 C5.6725 19.3125 3.0325 19.3125 0.3125 19.3125 C0.20292969 18.69761719 0.09335938 18.08273437 -0.01953125 17.44921875 C-0.17808594 16.64097656 -0.33664063 15.83273437 -0.5 15 C-0.65082031 14.19949219 -0.80164063 13.39898437 -0.95703125 12.57421875 C-1.78128833 10.02210726 -2.59475641 8.95933212 -4.6875 7.3125 C-9.78378739 5.61373754 -14.80300235 5.40951154 -19.6875 7.75 C-21.57413383 9.1585034 -21.57413383 9.1585034 -22.6875 10.3125 C-23.07455511 13.718585 -23.01839989 15.72538906 -21.3203125 18.73828125 C-16.88269345 23.07714023 -11.12621229 24.66133101 -5.39648438 26.83007812 C1.15827222 29.44365433 5.07026745 31.82803489 8.3125 38.3125 C8.81321209 43.79570778 9.00052916 48.70709862 6.8125 53.8125 C1.13842314 59.48657686 -3.80811536 60.6642257 -11.8125 60.75 C-12.49344727 60.76015137 -13.17439453 60.77030273 -13.87597656 60.78076172 C-19.24205477 60.68806304 -23.36770858 59.47800601 -27.33203125 55.77734375 C-30.59647691 51.50845327 -31.81840157 49.52282241 -31.75 44.1875 C-31.74097656 43.27742187 -31.73195312 42.36734375 -31.72265625 41.4296875 C-31.71105469 40.73101562 -31.69945312 40.03234375 -31.6875 39.3125 C-29.0475 39.3125 -26.4075 39.3125 -23.6875 39.3125 C-23.60113281 39.99957031 -23.51476562 40.68664062 -23.42578125 41.39453125 C-22.65960708 46.91633241 -22.65960708 46.91633241 -19.6875 51.4375 C-14.30268382 53.00807139 -9.01387772 52.97717935 -3.625 51.4375 C-1.53220406 50.45934888 -1.53220406 50.45934888 -0.6875 48.3125 C-0.18103454 44.24213569 -0.18103454 44.24213569 -0.6875 40.3125 C-5.23975114 35.55792658 -11.60542456 33.78751677 -17.65039062 31.57617188 C-23.45641556 29.29506959 -27.2867146 26.62279664 -30.6875 21.3125 C-32.43888012 16.05835964 -32.67040651 10.56425425 -30.1875 5.5 C-23.91591739 -3.76728701 -9.51815835 -4.37513845 0 0 Z " fill="#164EA1" transform="translate(94.6875,469.6875)"/>
<path d="M0 0 C4.32886958 2.82317581 7.20614871 5.86844612 8.875 10.875 C8.94240865 12.43618428 8.96014456 14.0000252 8.9375 15.5625 C8.92847656 16.37074219 8.91945313 17.17898438 8.91015625 18.01171875 C8.89855469 18.62660156 8.88695312 19.24148438 8.875 19.875 C6.235 19.875 3.595 19.875 0.875 19.875 C0.80023438 19.18792969 0.72546875 18.50085938 0.6484375 17.79296875 C-0.08009497 12.0275335 -0.08009497 12.0275335 -3.6875 7.75 C-9.12385596 6.3662003 -13.79069278 6.04826619 -19.125 7.9375 C-21.40919577 9.84264261 -21.40919577 9.84264261 -22.1875 13.25 C-22.10901676 17.80202815 -21.35542406 18.71799467 -18.125 21.875 C-15.12106745 23.45605576 -11.99144038 24.63105472 -8.8125 25.8125 C-2.40122464 28.19867008 3.26064527 30.63630392 7.875 35.875 C9.87667649 41.88002948 9.86584274 48.5630336 7.375 54.375 C1.70092314 60.04907686 -3.24561536 61.2267257 -11.25 61.3125 C-11.93094727 61.32265137 -12.61189453 61.33280273 -13.31347656 61.34326172 C-18.67765698 61.25059583 -22.77063688 60.0224476 -26.76953125 56.375 C-30.02663185 52.19196779 -31.26367246 49.4433998 -31.1875 44.1875 C-31.17847656 43.37925781 -31.16945313 42.57101562 -31.16015625 41.73828125 C-31.14855469 41.12339844 -31.13695312 40.50851562 -31.125 39.875 C-28.485 39.875 -25.845 39.875 -23.125 39.875 C-23.03863281 40.56207031 -22.95226562 41.24914062 -22.86328125 41.95703125 C-22.09710708 47.47883241 -22.09710708 47.47883241 -19.125 52 C-13.42100399 53.6636655 -8.2166892 53.53553343 -2.5625 51.75 C0.10223395 50.04429227 0.10223395 50.04429227 0.9375 47 C0.85878518 43.06425886 0.52215057 41.82468207 -2.125 38.875 C-6.932664 35.91087633 -12.10551788 33.86002428 -17.375 31.875 C-23.23712994 29.56511835 -26.85050689 27.1690876 -30 21.5 C-31.68853988 16.05914928 -31.81784992 11.9503398 -29.625 6.6875 C-27.59449801 3.09399991 -25.54270709 1.10676052 -21.734375 -0.50390625 C-14.9509832 -2.11851597 -6.63302922 -2.4345404 0 0 Z " fill="#164EA1" transform="translate(356.125,469.125)"/>
<path d="M0 0 C2.64 0 5.28 0 8 0 C8 8.91 8 17.82 8 27 C16.58 27 25.16 27 34 27 C34 18.09 34 9.18 34 0 C36.64 0 39.28 0 42 0 C42 20.13 42 40.26 42 61 C39.36 61 36.72 61 34 61 C34 52.09 34 43.18 34 34 C25.42 34 16.84 34 8 34 C8 42.91 8 51.82 8 61 C5.36 61 2.72 61 0 61 C0 40.87 0 20.74 0 0 Z " fill="#174EA2" transform="translate(531,469)"/>
<path d="M0 0 C3.96 0 7.92 0 12 0 C15.89827532 13.12377576 19.68523591 26.27737849 23.32595825 39.47488403 C23.73249541 40.94577399 24.14123615 42.41605674 24.55221558 43.88571167 C25.13364058 45.96767959 25.70656734 48.05180994 26.27734375 50.13671875 C26.60984131 51.34030029 26.94233887 52.54388184 27.28491211 53.78393555 C27.92474136 56.66152883 28.15231012 59.07018871 28 62 C25.36 62 22.72 62 20 62 C18.68 57.05 17.36 52.1 16 47 C9.4 46.67 2.8 46.34 -4 46 C-5.32 51.28 -6.64 56.56 -8 62 C-10.64 62 -13.28 62 -16 62 C-15.35989053 55.15011056 -13.72599307 48.78368603 -11.875 42.16796875 C-11.41456299 40.49762321 -11.41456299 40.49762321 -10.94482422 38.79353333 C-9.96843714 35.25672065 -8.98423734 31.72213512 -8 28.1875 C-7.33804702 25.79245437 -6.67658353 23.39727339 -6.015625 21.00195312 C-4.80755992 16.63225599 -3.59863398 12.26280969 -2.3828125 7.89526367 C-2.01760498 6.5824366 -2.01760498 6.5824366 -1.64501953 5.24308777 C-1.13881223 3.4827265 -0.57923377 1.73770132 0 0 Z M6 9 C3.6840422 14.88158198 1.88506944 20.75575697 0.3125 26.875 C0.08755859 27.72835938 -0.13738281 28.58171875 -0.36914062 29.4609375 C-1.55784452 33.67762648 -1.55784452 33.67762648 -2 38 C3.28 38 8.56 38 14 38 C11.73488665 28.31468774 9.45180794 18.64006305 7 9 C6.67 9 6.34 9 6 9 Z " fill="#164EA1" transform="translate(126,468)"/>
<path d="M0 0 C3.96 0 7.92 0 12 0 C14.09160383 7.49166876 16.17883936 14.98452149 18.25842285 22.47953415 C19.22424674 25.959778 20.1919699 29.43947017 21.1640625 32.91796875 C22.10224182 36.27538428 23.03539397 39.63415994 23.96508789 42.99393463 C24.49342868 44.89819053 25.02695581 46.80100499 25.56054688 48.70379639 C25.88087891 49.86469788 26.20121094 51.02559937 26.53125 52.22167969 C26.81548828 53.24316101 27.09972656 54.26464233 27.39257812 55.31707764 C28 58 28 58 28 62 C25.36 62 22.72 62 20 62 C18.68 56.72 17.36 51.44 16 46 C6.1 46.495 6.1 46.495 -4 47 C-5.32 51.95 -6.64 56.9 -8 62 C-10.97 62 -13.94 62 -17 62 C-14.06869952 49.9809061 -10.88783767 38.03723119 -7.6262207 26.10400391 C-6.80070576 23.08182168 -5.97933395 20.05853224 -5.15820312 17.03515625 C-4.63305807 15.10930802 -4.10767656 13.18352425 -3.58203125 11.2578125 C-3.3372554 10.35588165 -3.09247955 9.45395081 -2.84028625 8.52468872 C-2.61302353 7.69556976 -2.3857608 6.86645081 -2.15161133 6.01220703 C-1.95271805 5.28325226 -1.75382477 4.55429749 -1.54890442 3.80325317 C-1 2 -1 2 0 0 Z M5 9 C3.82741384 13.43595759 2.66294388 17.87400568 1.5 22.3125 C1.16613281 23.57513672 0.83226562 24.83777344 0.48828125 26.13867188 C0.17246094 27.34716797 -0.14335937 28.55566406 -0.46875 29.80078125 C-0.76201172 30.91622314 -1.05527344 32.03166504 -1.35742188 33.1809082 C-2.11111891 36.0055965 -2.11111891 36.0055965 -2 39 C3.28 39 8.56 39 14 39 C12.54755139 32.7874756 12.54755139 32.7874756 11.08203125 26.578125 C10.42311679 23.79899852 9.7749648 21.01839849 9.13671875 18.234375 C8.75966797 16.63335937 8.75966797 16.63335937 8.375 15 C8.04628906 13.576875 8.04628906 13.576875 7.7109375 12.125 C7.21579364 9.81359401 7.21579364 9.81359401 5 9 Z " fill="#164EA1" transform="translate(409,468)"/>
<path d="M0 0 C3.96 0 7.92 0 12 0 C14.09160383 7.49166876 16.17883936 14.98452149 18.25842285 22.47953415 C19.22424674 25.959778 20.1919699 29.43947017 21.1640625 32.91796875 C22.10224182 36.27538428 23.03539397 39.63415994 23.96508789 42.99393463 C24.49342868 44.89819053 25.02695581 46.80100499 25.56054688 48.70379639 C25.88087891 49.86469788 26.20121094 51.02559937 26.53125 52.22167969 C26.81548828 53.24316101 27.09972656 54.26464233 27.39257812 55.31707764 C28 58 28 58 28 62 C25.36 62 22.72 62 20 62 C18.68 56.72 17.36 51.44 16 46 C6.1 46.495 6.1 46.495 -4 47 C-5.32 51.95 -6.64 56.9 -8 62 C-10.97 62 -13.94 62 -17 62 C-14.06869952 49.9809061 -10.88783767 38.03723119 -7.6262207 26.10400391 C-6.80070576 23.08182168 -5.97933395 20.05853224 -5.15820312 17.03515625 C-4.63305807 15.10930802 -4.10767656 13.18352425 -3.58203125 11.2578125 C-3.3372554 10.35588165 -3.09247955 9.45395081 -2.84028625 8.52468872 C-2.61302353 7.69556976 -2.3857608 6.86645081 -2.15161133 6.01220703 C-1.95271805 5.28325226 -1.75382477 4.55429749 -1.54890442 3.80325317 C-1 2 -1 2 0 0 Z M5 9 C3.82741384 13.43595759 2.66294388 17.87400568 1.5 22.3125 C1.16613281 23.57513672 0.83226562 24.83777344 0.48828125 26.13867188 C0.17246094 27.34716797 -0.14335938 28.55566406 -0.46875 29.80078125 C-0.76201172 30.91622314 -1.05527344 32.03166504 -1.35742188 33.1809082 C-2.11111891 36.0055965 -2.11111891 36.0055965 -2 39 C3.28 39 8.56 39 14 39 C12.54755139 32.7874756 12.54755139 32.7874756 11.08203125 26.578125 C10.42311679 23.79899852 9.7749648 21.01839849 9.13671875 18.234375 C8.75966797 16.63335937 8.75966797 16.63335937 8.375 15 C8.04628906 13.576875 8.04628906 13.576875 7.7109375 12.125 C7.21579364 9.81359401 7.21579364 9.81359401 5 9 Z " fill="#164EA1" transform="translate(597,468)"/>
<path d="M0 0 C27.05263158 0 27.05263158 0 34 6 C38.26409856 11.36322956 38.66978853 17.19321433 38.453125 23.87109375 C37.5999021 29.76274499 34.73439682 33.16924781 30.75 37.375 C23.6886422 41.54762052 15.98270006 41.20209367 8 41 C8 47.93 8 54.86 8 62 C5.36 62 2.72 62 0 62 C0 41.54 0 21.08 0 0 Z M8 8 C8 16.25 8 24.5 8 33 C17.18815962 33.86885723 17.18815962 33.86885723 25.75 31.25 C29.19841314 27.80158686 30.3087437 24.9874438 30.4375 20.125 C30.37763273 16.44044176 29.97772017 14.3037933 27.625 11.4375 C23.5514066 7.65487756 20.68909046 7.87425035 15.375 7.9375 C12.94125 7.958125 10.5075 7.97875 8 8 Z " fill="#174EA2" transform="translate(162,468)"/>
<path d="M0 0 C26 0 26 0 32 3 C37.80119282 9.0648834 39.48994337 13.97481704 39.3125 22.21484375 C38.68222923 27.83213203 36.32320062 32.06084179 32.1875 35.875 C24.44101059 41.03932628 17.10601658 40.17344793 8 40 C8 46.93 8 53.86 8 61 C5.36 61 2.72 61 0 61 C0 40.87 0 20.74 0 0 Z M8 7 C8 15.58 8 24.16 8 33 C18.0666159 33.13903187 18.0666159 33.13903187 27 30 C30.247349 26.752651 30.93837004 23.75188546 31.3125 19.1875 C31.25622352 14.8220527 29.8641392 12.34149573 27 9 C23.3511932 6.45271978 19.51983554 6.77088014 15.25 6.875 C11.66125 6.936875 11.66125 6.936875 8 7 Z " fill="#174EA2" transform="translate(484,469)"/>
<path d="M0 0 C10.89 0 21.78 0 33 0 C33 2.64 33 5.28 33 8 C24.42 8 15.84 8 7 8 C7 14.27 7 20.54 7 27 C14.26 27 21.52 27 29 27 C29 29.31 29 31.62 29 34 C21.74 34 14.48 34 7 34 C7 40.6 7 47.2 7 54 C15.58 54 24.16 54 33 54 C33 56.64 33 59.28 33 62 C22.11 62 11.22 62 0 62 C0 41.54 0 21.08 0 0 Z " fill="#174EA2" transform="translate(228,468)"/>
<path d="M0 0 C3.74826092 3.21279508 5.22067794 5.74823233 6.5 10.5 C6.67789491 15.83684734 5.76510306 20.72730868 2.2265625 24.8984375 C-1.79421727 28.42937608 -4.60731795 29.11906059 -9.75 29.5 C-14.35991429 29.18207488 -17.48639066 28.11315639 -20.82421875 24.8203125 C-24.64240225 20.42229025 -25.69242415 17.11885834 -25.5859375 11.3046875 C-25.10368069 6.60714894 -22.87165739 3.48042427 -19.4375 0.4375 C-13.26888658 -3.96865245 -6.60613273 -3.42540215 0 0 Z " fill="#164EA1" transform="translate(473.375,95.75)"/>
<path d="M0 0 C3.88844331 2.60148807 5.72863262 6.11259718 7.125 10.5 C7.95665817 16.32160717 6.55361505 20.8098174 3.125 25.5 C-0.43416079 28.87034589 -4.11471504 29.76792614 -8.9375 30 C-14.87387897 29.73876329 -17.95246956 27.31860988 -22.1875 23.3125 C-24.52054836 19.42408607 -25.06874512 16.01038641 -24.875 11.5 C-23.30215401 6.25718003 -21.03563228 3.03653744 -16.875 -0.5 C-11.42384723 -2.31705092 -5.25500989 -2.58200702 0 0 Z " fill="#164EA1" transform="translate(227.875,340.5)"/>
<path d="M0 0 C2.31 0 4.62 0 7 0 C7 17.82 7 35.64 7 54 C14.92 54 22.84 54 31 54 C31 56.31 31 58.62 31 61 C20.77 61 10.54 61 0 61 C0 40.87 0 20.74 0 0 Z " fill="#174EA2" transform="translate(445,469)"/>
<path d="M0 0 C2.64 0 5.28 0 8 0 C8 20.46 8 40.92 8 62 C5.36 62 2.72 62 0 62 C0 41.54 0 21.08 0 0 Z " fill="#174EA2" transform="translate(209,468)"/>
</svg>
